<?xml version="1.0" standalone="no"?><!-- Generator: Adobe Fireworks CS6, Export SVG Extension by Aaron Beall (http://fireworks.abeall.com) . Version: 0.6.1  --><!DOCTYPE svg PUBLIC "-//W3C//DTD SVG 1.1//EN" "http://www.w3.org/Graphics/SVG/1.1/DTD/svg11.dtd"><svg id="icewine-Page%201" viewBox="0 0 400 125" style="background-color:#ffffff00" version="1.1"	xmlns="http://www.w3.org/2000/svg" xmlns:xlink="http://www.w3.org/1999/xlink" xml:space="preserve"	x="0px" y="0px" width="400px" height="125px">	<defs>		<linearGradient id="gradient1" x1="41.8605%" y1="26.9231%" x2="41.8605%" y2="100%">			<stop stop-color="#ffffff" stop-opacity="0" offset="0%"/>			<stop stop-color="#abedff" stop-opacity="1" offset="50%"/>			<stop stop-color="#70e0ff" stop-opacity="1" offset="84.8485%"/>			<stop stop-color="#56daff" stop-opacity="1" offset="100%"/>		</linearGradient>		<linearGradient id="gradient2" x1="42.8094%" y1="9.8142%" x2="86.9858%" y2="77.854%">			<stop stop-color="#ffffff" stop-opacity="0" offset="0%"/>			<stop stop-color="#a7edff" stop-opacity="1" offset="50%"/>			<stop stop-color="#4edaff" stop-opacity="1" offset="100%"/>		</linearGradient>		<linearGradient id="gradient3" x1="63.3333%" y1="0%" x2="157.6143%" y2="57.7231%">			<stop stop-color="#ffffff" stop-opacity="0" offset="0%"/>			<stop stop-color="#abedff" stop-opacity="1" offset="50%"/>			<stop stop-color="#70e0ff" stop-opacity="1" offset="84.8485%"/>			<stop stop-color="#56daff" stop-opacity="1" offset="100%"/>		</linearGradient>	</defs>	<g id="Layer%201">		<path id="Ellipse" d="M 11 85.5 C 11 78.5964 16.5963 73 23.5 73 C 30.4036 73 36 78.5964 36 85.5 C 36 92.4036 30.4036 98 23.5 98 C 16.5963 98 11 92.4036 11 85.5 Z" stroke="#ffffff" stroke-width="2" fill="#a50bff"/>		<text x="80" y="139" width="315" fill="#0174ff" style="font-size: 100px; color: #0174ff; font-family: Oswald; text-align: left; "><tspan><![CDATA[Ice]]></tspan><tspan style="color: #a50bff; "><![CDATA[Wine]]></tspan></text>		<path id="Ellipse2" d="M 6 63.5 C 6 56.5964 11.5963 51 18.5 51 C 25.4036 51 31 56.5964 31 63.5 C 31 70.4036 25.4036 76 18.5 76 C 11.5963 76 6 70.4036 6 63.5 Z" stroke="#ffffff" stroke-width="2" fill="#a50bff"/>		<path id="Ellipse3" d="M 29 35.5 C 29 28.5964 34.5963 23 41.5 23 C 48.4036 23 54 28.5964 54 35.5 C 54 42.4036 48.4036 48 41.5 48 C 34.5963 48 29 42.4036 29 35.5 Z" stroke="#ffffff" stroke-width="2" fill="#a50bff"/>		<path id="Ellipse4" d="M 17 44.5 C 17 37.5964 22.5963 32 29.5 32 C 36.4036 32 42 37.5964 42 44.5 C 42 51.4036 36.4036 57 29.5 57 C 22.5963 57 17 51.4036 17 44.5 Z" stroke="#ffffff" stroke-width="2" fill="#a50bff"/>		<path id="Ellipse5" d="M 31 78.5 C 31 71.5964 36.5963 66 43.5 66 C 50.4036 66 56 71.5964 56 78.5 C 56 85.4036 50.4036 91 43.5 91 C 36.5963 91 31 85.4036 31 78.5 Z" stroke="#ffffff" stroke-width="2" fill="#a50bff"/>		<path id="Ellipse6" d="M 21 61.5 C 21 54.5964 26.5963 49 33.5 49 C 40.4036 49 46 54.5964 46 61.5 C 46 68.4036 40.4036 74 33.5 74 C 26.5963 74 21 68.4036 21 61.5 Z" stroke="#ffffff" stroke-width="2" fill="#a50bff"/>		<path id="Ellipse7" d="M 43 64.5 C 43 57.5964 48.5963 52 55.5 52 C 62.4036 52 68 57.5964 68 64.5 C 68 71.4036 62.4036 77 55.5 77 C 48.5963 77 43 71.4036 43 64.5 Z" stroke="#ffffff" stroke-width="2" fill="#a50bff"/>		<path id="Ellipse8" d="M 34 46.5 C 34 39.5964 39.5963 34 46.5 34 C 53.4036 34 59 39.5964 59 46.5 C 59 53.4036 53.4036 59 46.5 59 C 39.5963 59 34 53.4036 34 46.5 Z" stroke="#ffffff" stroke-width="2" fill="#a50bff"/>		<path d="M 47 33 L 46 43 L 49.5 40.25 L 49 50 L 53 45 L 54 55 L 57 53 L 57.75 60.5 L 61.5307 58.4746 L 62 65 L 65.2865 63.0129 L 69 67.5 L 67.75 58 L 73.5 62.25 L 70.25 51.25 L 76 53.75 C 76 53.75 72 45 72 44.25 C 72 43.5 76 45 76 45 C 76 45 69.5 38 69.75 37.5 C 70 37 75.75 39.25 75.75 39.25 L 67 30 L 73 31.25 C 73 31.25 73 28 62 26.5 C 51 25 47 33 47 33 Z" stroke="#ffffff" stroke-width="2" fill="#61cc6a"/>		<path d="M 12 81 L 14 101 L 15.75 96.5 L 19 104 L 21.25 98.75 L 26 107 L 27.5 98.75 L 30.75 102.75 L 33.5 99 L 36.25 103 L 40.6667 83.3333 L 29.5 88.75 L 24.25 90.75 L 20 90 L 17.25 85.25 L 12 81 Z" fill="url(#gradient1)"/>		<path d="M 33.3333 88 L 36.75 98.5 L 40.6667 94 C 40.6667 94 44.5 102.75 44 102.25 C 43.5 101.75 46.25 91.5 46.25 91.5 L 49 97 L 51.75 89.75 L 55.25 93.75 L 58.25 74.25 L 52.5 76.25 C 52.5 76.25 50.25 77.25 49.75 77.5 C 49.25 77.75 45.5 82 45.5 82 L 33.3333 88 Z" fill="url(#gradient2)"/>		<path d="M 54 75 L 57.25 88.5 L 59.75 80.75 L 62 86 L 64 76 L 65.25 83.5 L 67 71 L 69 77.75 L 68.25 64 L 54 75 Z" fill="url(#gradient3)"/>	</g></svg>